<svg xmlns="http://www.w3.org/2000/svg" viewBox="0 0 240 80" fill="none" stroke="currentColor" stroke-width="1.5" stroke-linecap="round" stroke-linejoin="round" aria-label="-Greg"><path d="M8 50 h22"/><path d="M48 30 c-8 0 -14 7 -14 18 c0 11 6 18 14 18 c8 0 14 -5 14 -12 l0 -5 l-10 0"/><path d="M76 66 l0 -32 c0 -8 6 -10 12 -8 c4 1 6 3 8 7"/><path d="M104 50 c12 0 18 -6 18 -12 c0 -6 -4 -10 -10 -10 c-8 0 -14 7 -14 16 c0 12 8 18 16 18 c5 0 9 -2 12 -5"/><path d="M148 34 l0 26 c0 14 -6 18 -14 18 c-7 0 -12 -3 -14 -8"/><path d="M148 34 c-8 -4 -16 -2 -20 4 c-5 7 -2 16 6 18 c5 1 10 -1 14 -6"/></svg>
