<svg fill="currentColor" version="1.0" xmlns="http://www.w3.org/2000/svg" width="320.000000pt" height="320.000000pt" viewBox="0 0 320.000000 320.000000" preserveAspectRatio="xMidYMid meet"><g transform="translate(0.000000,320.000000) scale(0.100000,-0.100000)" fill="currentColor" stroke="none"><path d="M427 2233 c-29 -33 -87 -200 -87 -253 0 -38 60 46 70 99 10 52 28 111 45 154 4 9 3 17 -2 17 -6 0 -17 -8 -26 -17z"/><path d="M914 2228 c44 -170 54 -197 79 -228 35 -43 33 12 -4 122 -31 94 -96 184 -75 106z"/><path d="M1195 2185 c-35 -34 -39 -375 -5 -418 24 -31 94 -43 160 -28 65 14 71 28 68 151 -3 105 -3 105 -58 105 -55 0 -55 0 -58 -37 -3 -33 0 -38 18 -38 40 0 25 -104 -16 -108 -50 -5 -55 10 -52 169 3 144 3 144 45 147 42 3 42 3 45 -35 6 -73 78 -62 78 12 0 84 -25 105 -125 105 -67 0 -79 -3 -100 -25z"/><path d="M1480 1976 c0 -258 2 -261 150 -241 81 11 136 175 75 225 -13 11 -13 14 0 27 11 10 15 37 15 94 0 116 -15 129 -145 129 l-95 0 0 -234z m155 94 c0 -55 0 -55 -37 -58 -38 -3 -38 -3 -38 58 0 61 0 61 38 58 37 -3 37 -3 37 -58z m3 -197 c3 -49 1 -53 -22 -59 -46 -11 -56 0 -56 61 0 86 73 83 78 -2z"/><path d="M460 2168 c-17 -29 -26 -66 -30 -133 -15 -244 -14 -239 -30 -220 -10 11 -14 36 -13 68 1 33 -2 45 -8 36 -22 -35 -6 10 21 58 35 62 28 67 -22 16 -121 -124 -98 -214 71 -282 78 -32 121 -61 89 -61 -7 0 -31 9 -53 20 -53 27 -58 25 -50 -12 12 -55 32 -85 67 -97 18 -7 40 -16 47 -20 17 -8 34 -61 21 -61 -12 0 -32 -65 -41 -135 -4 -33 -13 -80 -20 -104 -14 -50 15 -87 103 -132 100 -51 276 47 244 136 -8 22 -20 39 -27 37 -9 -2 -9 1 1 13 15 18 0 116 -27 173 -21 44 -5 82 33 82 35 0 79 47 88 94 9 49 6 51 -40 27 -41 -22 -64 -27 -64 -13 0 10 32 27 125 67 139 60 153 154 41 268 -47 47 -63 48 -31 1 14 -20 25 -44 26 -53 2 -44 -4 -108 -12 -123 -21 -39 -29 -15 -29 86 0 62 -4 107 -10 111 -8 5 -8 11 0 20 16 19 -7 111 -37 143 -25 27 -25 27 -19 2 45 -197 32 -352 -37 -427 -28 -31 -37 -21 -37 40 0 93 -22 282 -36 307 -12 22 -13 18 -8 -45 15 -176 -29 -412 -75 -403 -48 9 -64 81 -65 279 -1 277 -31 223 -52 -93 -7 -112 -10 -120 -36 -90 -71 80 -88 303 -33 435 13 30 -14 19 -35 -15z m257 -754 c6 -17 -18 -66 -36 -72 -6 -2 -11 3 -11 11 0 8 -7 17 -15 21 -18 7 -19 28 -3 44 17 17 58 15 65 -4z"/><path d="M1400 1405 c0 -235 0 -235 40 -235 40 0 40 0 40 100 0 100 0 100 61 100 93 0 90 73 -3 78 -106 6 -88 110 20 114 77 3 77 3 80 41 3 37 3 37 -117 37 l-121 0 0 -235z"/><path d="M1700 1405 l0 -235 115 0 c115 0 115 0 115 40 0 40 0 40 -75 40 -75 0 -75 0 -75 60 0 60 0 60 61 60 93 0 90 73 -3 78 -105 5 -88 112 17 112 75 0 75 0 75 40 0 40 0 40 -115 40 l-115 0 0 -235z"/><path d="M1990 1405 l0 -235 120 0 c120 0 120 0 120 40 0 40 0 40 -80 40 -80 0 -80 0 -80 60 0 60 0 60 59 60 67 0 71 2 64 48 -5 32 -5 32 -64 32 -108 0 -90 108 19 112 77 3 77 3 80 41 3 37 3 37 -117 37 l-121 0 0 -235z"/><path d="M2290 1405 l0 -235 94 0 c145 0 141 -7 141 233 0 246 5 237 -137 237 l-98 0 0 -235z m155 0 c0 -150 0 -150 -37 -153 -38 -3 -38 -3 -38 153 0 156 0 156 38 153 37 -3 37 -3 37 -153z"/><path d="M2610 1620 c-17 -17 -33 -218 -17 -220 84 -10 142 -50 145 -98 4 -70 -64 -84 -70 -14 -6 75 -78 60 -78 -17 0 -85 19 -101 117 -101 105 0 113 10 113 139 0 99 0 99 -72 123 -89 30 -122 128 -44 128 34 0 36 -2 36 -35 0 -34 1 -35 40 -35 40 0 40 0 40 55 0 80 -18 95 -115 95 -62 0 -79 -4 -95 -20z"/><path d="M742 1042 c-35 -23 -10 -147 31 -150 37 -3 37 -3 37 37 0 34 -3 41 -20 41 -22 0 -26 -10 -9 -27 12 -12 4 -33 -12 -33 -5 0 -9 25 -9 55 0 42 3 55 15 55 8 0 15 -7 15 -15 0 -8 5 -15 11 -15 6 0 9 12 7 28 -3 29 -39 42 -66 24z"/><path d="M837 1043 c-15 -15 -8 -153 8 -153 9 0 15 9 15 25 0 31 17 33 22 3 5 -34 29 -35 28 -1 0 15 2 42 6 59 11 55 -45 102 -79 67z"/><path d="M947 1043 c-28 -27 -6 -153 27 -153 39 0 46 11 46 76 0 69 -40 111 -73 77z m43 -79 c0 -73 -24 -70 -28 4 -2 42 0 52 12 52 13 0 16 -12 16 -56z"/><path d="M1040 1016 c0 -103 30 -169 46 -98 12 54 17 57 26 15 5 -26 15 -43 23 -43 21 0 38 150 18 157 -8 3 -13 -11 -15 -39 -4 -43 -11 -38 -22 15 -9 40 -24 33 -34 -15 -9 -43 -9 -43 -16 0 -9 50 -26 56 -26 8z"/><path d="M1287 1044 c-32 -32 -5 -154 33 -154 56 0 61 153 5 158 -17 2 -34 0 -38 -4z"/><path d="M1387 1043 c-15 -15 -8 -153 8 -153 12 0 15 16 15 80 0 73 -6 91 -23 73z"/><path d="M1441 1036 c-30 -36 -9 -141 28 -144 38 -4 51 9 51 51 0 20 -5 27 -19 27 -15 0 -19 -6 -18 -26 1 -15 -4 -29 -10 -31 -10 -3 -13 11 -13 51 0 43 3 56 15 56 8 0 15 -7 15 -15 0 -17 16 -20 25 -5 21 34 -48 67 -74 36z"/><path d="M1546 1042 c-4 -7 -9 -106 -7 -140 1 -9 13 -12 39 -10 44 4 67 78 23 78 -18 0 -20 -4 -14 -31 5 -25 3 -31 -8 -27 -20 7 -26 108 -6 108 8 0 17 -7 21 -15 8 -21 26 -19 26 3 0 33 -58 60 -74 34z"/><path d="M1640 970 c0 -80 0 -80 40 -80 22 0 40 5 40 10 0 6 -11 10 -25 10 -31 0 -35 35 -5 43 11 3 20 10 20 16 0 6 -9 11 -20 11 -13 0 -20 7 -20 20 0 15 7 20 25 20 16 0 25 6 25 15 0 11 -11 15 -40 15 -40 0 -40 0 -40 -80z"/><path d="M1740 970 c0 -79 28 -127 31 -52 1 27 1 27 12 0 19 -48 32 -32 35 44 3 78 -3 88 -50 88 -28 0 -28 0 -28 -80z"/><path d="M1940 969 c0 -80 0 -80 38 -77 66 5 58 158 -9 158 -29 0 -29 0 -29 -81z"/><path d="M2040 970 c0 -81 0 -81 38 -78 39 3 61 143 25 156 -10 3 -13 -15 -13 -68 0 -95 -24 -95 -26 0 -2 100 -24 90 -24 -10z"/><path d="M2153 1043 c-38 -15 -14 -154 25 -151 39 3 65 48 28 48 -9 0 -16 -7 -16 -16 0 -9 -6 -14 -12 -12 -17 6 -17 100 0 105 6 3 12 -2 12 -11 0 -9 7 -16 15 -16 18 0 20 31 3 48 -12 12 -33 14 -55 5z"/><path d="M2240 971 c0 -47 4 -81 10 -81 6 0 10 9 10 19 0 30 16 33 28 6 12 -25 32 -34 32 -15 0 6 -7 24 -15 40 -14 26 -13 33 2 64 17 38 9 64 -11 33 -30 -49 -37 -54 -34 -23 2 17 -2 31 -9 33 -10 4 -13 -16 -13 -76z"/><path d="M2350 1031 c-19 -36 -12 -62 20 -74 30 -11 39 -30 21 -42 -6 -3 -14 3 -20 12 -7 13 -13 15 -21 7 -19 -19 0 -44 35 -44 48 0 58 67 13 84 -29 11 -39 46 -13 46 8 0 15 -7 15 -15 0 -16 16 -21 23 -7 3 4 1 17 -4 30 -11 28 -54 30 -69 3z"/></g></svg>