<svg xmlns="http://www.w3.org/2000/svg" width="800" height="414" viewBox="0 0 800 414"><path d="M 210.8 7.8 267.8 8.9 266.8 67.1 211.3 66.0 209.4 66.1 210.8 7.8 Z" data-fips="20137"/><path d="M 592.1 265.9 609.6 265.7 609.4 254.1 651.5 253.4 651.9 270.9 652.5 311.9 652.8 329.4 592.8 330.1 592.1 265.9 Z" data-fips="20073"/><path d="M 153.1 180.8 199.5 182.3 198.4 240.6 151.8 239.1 153.1 180.8 Z" data-fips="20101"/><path d="M 501.5 196.8 547.9 196.4 559.8 207.9 558.3 266.5 525.2 266.5 525.1 254.9 501.9 255.2 501.5 196.8 Z" data-fips="20115"/><path d="M 327.3 349.1 386.0 349.5 385.9 361.1 398.2 361.2 398.0 413.0 376.8 412.8 327.8 412.2 327.2 360.6 327.3 349.1 Z" data-fips="20007"/><path d="M 268.9 289.0 269.3 265.6 327.0 278.1 327.8 301.6 327.7 313.9 269.6 312.8 268.9 289.0 Z" data-fips="20047"/><path d="M 84.0 62.0 151.4 64.3 153.2 64.3 151.5 122.6 142.1 122.3 81.5 120.0 84.0 62.0 Z" data-fips="20193"/><path d="M 199.2 287.4 268.9 289.0 269.6 312.8 269.4 348.6 210.4 346.5 198.9 346.1 199.2 287.4 Z" data-fips="20057"/><path d="M 559.8 207.9 608.9 207.2 609.4 254.1 609.6 265.7 592.1 265.9 558.3 266.5 559.8 207.9 Z" data-fips="20017"/><path d="M 651.9 270.9 698.3 270.0 699.1 311.0 652.5 311.9 651.9 270.9 Z" data-fips="20207"/><path d="M 13.3 117.4 72.5 119.7 69.5 177.8 60.8 177.6 10.7 175.7 12.8 129.0 13.3 117.4 Z" data-fips="20199"/><path d="M 697.6 176.1 744.3 174.8 745.1 221.5 698.2 222.8 698.0 216.9 697.6 176.1 Z" data-fips="20059"/><path d="M 699.1 311.0 745.3 309.6 745.5 317.3 746.8 356.4 700.7 357.7 700.3 357.7 699.1 311.0 Z" data-fips="20133"/><path d="M 442.5 57.0 500.9 56.8 501.0 68.4 501.2 103.4 442.9 103.7 442.5 68.8 442.5 57.0 Z" data-fips="20029"/><path d="M 199.5 182.3 209.3 182.6 267.7 183.9 269.2 184.0 268.4 230.5 268.2 242.1 200.3 240.7 198.4 240.6 199.5 182.3 Z" data-fips="20135"/><path d="M 698.2 222.8 745.1 221.5 745.1 268.7 698.3 270.0 698.2 222.8 Z" data-fips="20003"/><path d="M 269.5 125.5 326.1 126.3 327.2 126.2 326.1 184.7 269.2 184.0 267.7 183.9 269.5 125.5 Z" data-fips="20051"/><path d="M 639.1 66.6 664.8 66.1 664.5 54.4 688 53.8 688.1 85.2 686.9 112.4 640.1 113.4 639.1 66.6 Z" data-fips="20085"/><path d="M 107.2 179.2 139.6 180.4 153.1 180.8 151.8 239.1 107.8 237.7 105.2 237.6 107.2 179.2 Z" data-fips="20171"/><path d="M 327.8 301.6 385.5 302.1 386.2 314.5 386.0 349.5 327.3 349.1 327.7 313.9 327.8 301.6 Z" data-fips="20151"/><path d="M 745.5 317.3 795.6 315.8 796.1 318.5 797.5 357.3 797.6 360.7 748.5 362.2 746.8 356.4 745.5 317.3 Z" data-fips="20037"/><path d="M 608.9 207.2 608.4 178.1 650.9 177.2 651.5 218.1 651.5 253.4 609.4 254.1 608.9 207.2 Z" data-fips="20111"/><path d="M 267.8 8.9 314.1 9.6 325.5 9.7 324.9 67.9 269.4 67.2 266.8 67.1 267.8 8.9 Z" data-fips="20147"/><path d="M 60.0 306.7 106.6 308.4 105.0 355.1 58.6 353.3 60.0 306.7 Z" data-fips="20067"/><path d="M 211.3 66.0 266.8 67.1 269.4 67.2 268.0 125.4 211.4 124.4 209.5 124.3 211.3 66.0 Z" data-fips="20065"/><path d="M 698.3 270.0 745.1 268.7 745.3 309.6 699.1 311.0 698.3 270.0 Z" data-fips="20001"/><path d="M 211.4 124.4 268.0 125.4 269.5 125.5 267.7 183.9 209.3 182.6 211.4 124.4 Z" data-fips="20195"/><path d="M 592.8 330.1 652.8 329.4 653.5 358.4 653.4 370.2 593.4 370.9 593.0 347.6 592.8 330.1 Z" data-fips="20049"/><path d="M 8.1 234.0 58.5 236.0 61.2 236.1 60.0 306.7 5.4 304.2 8.1 234.0 Z" data-fips="20075"/><path d="M 153.1 6.1 209.4 7.8 210.8 7.8 209.4 66.1 153.2 64.3 151.4 64.3 153.1 6.1 Z" data-fips="20039"/><path d="M 500.6 10.2 547.2 9.8 558.7 9.7 559.5 68 543.4 68.2 501.0 68.4 500.9 56.8 500.6 10.2 Z" data-fips="20201"/><path d="M 199.5 275.7 199.2 287.4 198.9 346.1 152.1 345.0 153.1 309.9 153.0 274.3 199.5 275.7 Z" data-fips="20069"/><path d="M 543.7 126.3 543.6 114.6 555.6 114.5 555.4 132.2 592.3 137.6 592.6 160.9 551.7 161.4 543.7 126.3 Z" data-fips="20061"/><path d="M 60.8 177.6 69.5 177.8 107.2 179.2 105.2 237.6 61.2 236.1 58.5 236.0 60.8 177.6 Z" data-fips="20203"/><path d="M 501.2 103.4 501.0 68.4 543.4 68.2 543.6 114.6 543.7 126.3 501.0 126.8 501.2 103.4 Z" data-fips="20027"/><path d="M 153.2 64.3 209.4 66.1 211.3 66.0 209.5 124.3 151.5 122.6 153.2 64.3 Z" data-fips="20179"/><path d="M 269.6 312.8 327.7 313.9 327.3 349.1 327.2 360.6 270.4 360.3 269.4 348.6 269.6 312.8 Z" data-fips="20097"/><path d="M 650.9 177.2 650.5 159.7 697.2 158.6 697.6 176.1 698.0 216.9 651.5 218.1 650.9 177.2 Z" data-fips="20139"/><path d="M 15.6 59.2 81.4 61.9 84.0 62.0 81.5 120.0 72.5 119.7 13.3 117.4 15.6 59.2 Z" data-fips="20181"/><path d="M 269.4 67.2 324.9 67.9 327.1 67.9 326.1 126.3 269.5 125.5 268.0 125.4 269.4 67.2 Z" data-fips="20163"/><path d="M 443.0 161.9 443.0 150.3 501.2 150.1 501.5 196.8 443.4 197.0 443.0 161.9 Z" data-fips="20169"/><path d="M 384.7 161.9 443.0 161.9 443.4 197.0 443.4 208.7 384.8 208.6 384.6 185.2 384.7 161.9 Z" data-fips="20053"/><path d="M 744.3 174.8 791.4 173.1 792.3 208.1 792.8 220.0 745.1 221.5 744.3 174.8 Z" data-fips="20121"/><path d="M 55.1 353.2 58.6 353.3 105.0 355.1 107.3 355.2 105.9 407.5 53.4 405.9 55.1 353.2 Z" data-fips="20189"/><path d="M 709.6 6.6 713.0 6.5 731.3 22.5 746.0 19.2 758.2 29.1 740.9 57.3 711.0 53.1 709.6 6.6 Z" data-fips="20043"/><path d="M 456.1 314.3 467.5 314.2 467.1 290.6 525.4 290.0 525.9 348.6 456.2 349.2 456.1 314.3 Z" data-fips="20173"/><path d="M 325.5 9.7 360.7 10.1 383.6 10.2 383 68.5 327.1 67.9 324.9 67.9 325.5 9.7 Z" data-fips="20183"/><path d="M 467.0 255.4 501.9 255.2 525.1 254.9 525.2 266.5 525.4 290.0 467.1 290.6 467.0 255.4 Z" data-fips="20079"/><path d="M 663.4 7.8 709.6 6.6 711.0 53.1 688 53.8 664.5 54.4 663.4 7.8 Z" data-fips="20013"/><path d="M 17.8 1 84.0 3.8 81.4 61.9 15.6 59.2 15.6 58.4 17.8 1 Z" data-fips="20023"/><path d="M 10.2 186.8 10.7 175.7 60.8 177.6 58.5 236.0 8.1 234.0 8.2 233.2 10.2 186.8 Z" data-fips="20071"/><path d="M 456.2 349.2 525.9 348.6 527.3 412.5 493.3 412.8 456.7 412.9 456.2 361.0 456.2 349.2 Z" data-fips="20191"/><path d="M 582.9 67.6 618.3 67.0 639.1 66.6 640.1 113.4 640.0 125.5 603.6 120.0 586.3 119.5 568 89.7 582.9 67.6 Z" data-fips="20149"/><path d="M 652.8 329.4 652.5 311.9 699.1 311.0 700.3 357.7 653.5 358.4 652.8 329.4 Z" data-fips="20205"/><path d="M 593.4 370.9 653.4 370.2 654.3 410.5 650.4 410.6 594.1 411.7 593.4 370.9 Z" data-fips="20019"/><path d="M 745.1 221.5 792.8 220.0 794.4 264.0 794.5 267.0 745.1 268.7 745.1 221.5 Z" data-fips="20107"/><path d="M 386.0 349.5 386.2 314.5 456.1 314.3 456.2 349.2 456.2 361.0 398.2 361.2 385.9 361.1 386.0 349.5 Z" data-fips="20095"/><path d="M 384.8 68.5 442.5 68.8 442.9 103.7 442.9 115.3 384.6 115.2 384.8 68.5 Z" data-fips="20123"/><path d="M 200.3 240.7 268.2 242.1 269.3 265.6 268.9 289.0 199.2 287.4 199.5 275.7 200.3 240.7 Z" data-fips="20083"/><path d="M 551.7 161.4 592.6 160.9 608.4 178.1 608.9 207.2 559.8 207.9 547.9 196.4 551.7 161.4 Z" data-fips="20127"/><path d="M 269.2 184.0 326.1 184.7 326.9 184.7 326.7 231.4 268.4 230.5 269.2 184.0 Z" data-fips="20165"/><path d="M 327.0 278.1 338.8 278.2 339.1 243.3 384.6 243.6 385.3 255.4 385.5 302.1 327.8 301.6 327.0 278.1 Z" data-fips="20185"/><path d="M 107.8 237.7 151.8 239.1 198.4 240.6 200.3 240.7 199.5 275.7 153.0 274.3 153.1 309.9 106.6 308.4 107.8 237.7 Z" data-fips="20055"/><path d="M 686.9 112.4 688.1 85.2 728.7 83.9 729.5 134.2 696.8 133.5 686.7 132.7 686.9 112.4 Z" data-fips="20087"/><path d="M 268.4 230.5 326.7 231.4 326.6 243.1 339.1 243.3 338.8 278.2 327.0 278.1 269.3 265.6 268.2 242.1 268.4 230.5 Z" data-fips="20145"/><path d="M 651.5 253.4 651.5 218.1 698.0 216.9 698.2 222.8 698.3 270.0 651.9 270.9 651.5 253.4 Z" data-fips="20031"/><path d="M 210.4 346.5 269.4 348.6 270.4 360.3 269.9 411.4 220.1 410.2 210.8 409.9 210.4 346.5 Z" data-fips="20025"/><path d="M 4.8 316.9 5.4 304.2 60.0 306.7 58.6 353.3 55.1 353.2 3.3 351.0 4.8 316.9 Z" data-fips="20187"/><path d="M 270.4 360.3 327.2 360.6 327.8 412.2 278.8 411.6 269.9 411.4 270.4 360.3 Z" data-fips="20033"/><path d="M 84.0 3.8 92.8 4.0 151.3 6.1 153.1 6.1 151.4 64.3 84.0 62.0 81.4 61.9 84.0 3.8 Z" data-fips="20153"/><path d="M 748.5 362.2 797.6 360.7 798.7 398.4 799 406.2 757.3 407.5 750.3 407.8 748.5 362.2 Z" data-fips="20021"/><path d="M 640.1 113.4 686.9 112.4 686.7 132.7 696.8 133.5 697.2 158.6 650.5 159.7 640.0 125.5 640.1 113.4 Z" data-fips="20177"/><path d="M 688 53.8 711.0 53.1 740.9 57.3 736.1 68.5 750.7 83.3 728.7 83.9 688.1 85.2 688 53.8 Z" data-fips="20005"/><path d="M 383.6 10.2 407.3 10.2 442.5 10.4 442.5 57.0 442.5 68.8 384.8 68.5 383 68.5 383.6 10.2 Z" data-fips="20089"/><path d="M 558.7 9.7 593.8 9.2 617.2 8.9 618.3 67.0 582.9 67.6 559.5 68 558.7 9.7 Z" data-fips="20117"/><path d="M 617.2 8.9 640.5 8.4 663.4 7.8 664.5 54.4 664.8 66.1 639.1 66.6 618.3 67.0 617.2 8.9 Z" data-fips="20131"/><path d="M 61.2 236.1 105.2 237.6 107.8 237.7 106.6 308.4 60.0 306.7 61.2 236.1 Z" data-fips="20093"/><path d="M 3.3 351.0 55.1 353.2 53.4 405.9 2.5 404.1 1 404.1 3.3 351.0 Z" data-fips="20129"/><path d="M 442.9 103.7 501.2 103.4 501.0 126.8 501.2 150.1 443.0 150.3 442.9 115.3 442.9 103.7 Z" data-fips="20143"/><path d="M 327.2 126.2 384.5 126.8 384.7 161.9 384.6 185.2 326.9 184.7 326.1 184.7 327.2 126.2 Z" data-fips="20167"/><path d="M 696.8 133.5 729.5 134.2 729.9 144.9 743.3 142.1 744.3 174.8 697.6 176.1 697.2 158.6 696.8 133.5 Z" data-fips="20045"/><path d="M 442.5 10.4 454 10.4 500.6 10.2 500.9 56.8 442.5 57.0 442.5 10.4 Z" data-fips="20157"/><path d="M 728.7 83.9 750.7 83.3 771.9 111.9 758.8 112.0 758.6 140.3 743.3 142.1 729.9 144.9 729.5 134.2 728.7 83.9 Z" data-fips="20103"/><path d="M 327.1 67.9 383 68.5 384.8 68.5 384.6 115.2 384.5 126.8 327.2 126.2 326.1 126.3 327.1 67.9 Z" data-fips="20141"/><path d="M 384.8 208.6 443.4 208.7 443.8 255.4 385.3 255.4 384.6 243.6 384.8 208.6 Z" data-fips="20159"/><path d="M 771.9 111.9 790.1 116.7 789.5 122.8 789.9 132.2 758.6 140.3 758.8 112.0 771.9 111.9 Z" data-fips="20209"/><path d="M 700.7 357.7 746.8 356.4 748.5 362.2 750.3 407.8 714.1 408.9 701.7 409.2 700.7 357.7 Z" data-fips="20099"/><path d="M 743.3 142.1 758.6 140.3 789.9 132.2 790.9 158.5 791.4 173.1 744.3 174.8 743.3 142.1 Z" data-fips="20091"/><path d="M 501.2 150.1 501.0 126.8 543.7 126.3 551.7 161.4 547.9 196.4 501.5 196.8 501.2 150.1 Z" data-fips="20041"/><path d="M 385.3 255.4 443.8 255.4 467.0 255.4 467.1 290.6 467.5 314.2 456.1 314.3 386.2 314.5 385.5 302.1 385.3 255.4 Z" data-fips="20155"/><path d="M 72.5 119.7 81.5 120.0 142.1 122.3 139.6 180.4 107.2 179.2 69.5 177.8 72.5 119.7 Z" data-fips="20109"/><path d="M 106.6 308.4 153.1 309.9 152.1 345.0 151.8 356.6 107.3 355.2 105.0 355.1 106.6 308.4 Z" data-fips="20081"/><path d="M 142.1 122.3 151.5 122.6 209.5 124.3 211.4 124.4 209.3 182.6 199.5 182.3 153.1 180.8 139.6 180.4 142.1 122.3 Z" data-fips="20063"/><path d="M 592.6 160.9 592.3 137.6 603.5 137.4 603.6 120.0 640.0 125.5 650.5 159.7 650.9 177.2 608.4 178.1 592.6 160.9 Z" data-fips="20197"/><path d="M 152.1 345.0 198.9 346.1 210.4 346.5 210.8 409.9 152.6 408.7 151.8 356.6 152.1 345.0 Z" data-fips="20119"/><path d="M 398.2 361.2 456.2 361.0 456.7 412.9 423.5 413.0 398.0 413.0 398.2 361.2 Z" data-fips="20077"/><path d="M 543.4 68.2 559.5 68 582.9 67.6 568 89.7 586.3 119.5 603.6 120.0 603.5 137.4 592.3 137.6 555.4 132.2 555.6 114.5 543.6 114.6 543.4 68.2 Z" data-fips="20161"/><path d="M 384.6 115.2 442.9 115.3 443.0 150.3 443.0 161.9 384.7 161.9 384.5 126.8 384.6 115.2 Z" data-fips="20105"/><path d="M 107.3 355.2 151.8 356.6 152.6 408.7 119.0 407.9 105.9 407.5 107.3 355.2 Z" data-fips="20175"/><path d="M 326.9 184.7 384.6 185.2 384.8 208.6 384.6 243.6 339.1 243.3 326.6 243.1 326.7 231.4 326.9 184.7 Z" data-fips="20009"/><path d="M 653.4 370.2 653.5 358.4 700.3 357.7 700.7 357.7 701.7 409.2 673.6 409.9 654.3 410.5 653.4 370.2 Z" data-fips="20125"/><path d="M 443.4 197.0 501.5 196.8 501.9 255.2 467.0 255.4 443.8 255.4 443.4 208.7 443.4 197.0 Z" data-fips="20113"/><path d="M 525.9 348.6 593.0 347.6 593.4 370.9 594.1 411.7 569.8 412.0 527.3 412.5 525.9 348.6 Z" data-fips="20035"/><path d="M 745.3 309.6 745.1 268.7 794.5 267.0 795.6 315.8 745.5 317.3 745.3 309.6 Z" data-fips="20011"/><path d="M 525.4 290.0 525.2 266.5 558.3 266.5 592.1 265.9 592.8 330.1 593.0 347.6 525.9 348.6 525.4 290.0 Z" data-fips="20015"/></svg>